<?xml version="1.0" encoding="UTF-8" standalone="no"?>
<!DOCTYPE svg PUBLIC "-//W3C//DTD SVG 1.1//EN" "http://www.w3.org/Graphics/SVG/1.1/DTD/svg11.dtd">
<svg width="100%" height="100%" viewBox="0 0 28 28" version="1.1" xmlns="http://www.w3.org/2000/svg" xmlns:xlink="http://www.w3.org/1999/xlink" xml:space="preserve" xmlns:serif="http://www.serif.com/" style="fill-rule:evenodd;clip-rule:evenodd;stroke-linejoin:round;stroke-miterlimit:2;">
    <g>
        <g transform="matrix(0.937349,0,0,0.937853,1.45185,0.461925)">
            <rect x="6.137" y="1.672" width="14.765" height="6.297" style="fill:white;"/>
        </g>
        <g transform="matrix(1,0,0,1,0,0.500318)">
            <path d="M21.044,25.474L7.205,25.474L7.205,19.888L2.295,19.888L2.295,10.777C2.295,9.738 3.138,8.895 4.178,8.895L23.858,8.895C24.897,8.895 25.741,9.738 25.741,10.777L25.741,19.888L21.044,19.888L21.044,25.474ZM19.808,17.483L8.485,17.483L8.485,24.264L19.808,24.264L19.808,17.483ZM23.215,10.745L20.902,10.745C20.647,10.745 20.44,10.952 20.44,11.207L20.44,12.132C20.44,12.387 20.647,12.595 20.902,12.595L23.215,12.595C23.47,12.595 23.677,12.387 23.677,12.132L23.677,11.207C23.677,10.952 23.47,10.745 23.215,10.745Z" style="fill:white;"/>
        </g>
    </g>
</svg>
